<?xml version="1.0" encoding="utf-8"?>
<!-- Generator: Adobe Illustrator 16.0.0, SVG Export Plug-In . SVG Version: 6.00 Build 0)  -->
<!DOCTYPE svg PUBLIC "-//W3C//DTD SVG 1.1//EN" "http://www.w3.org/Graphics/SVG/1.1/DTD/svg11.dtd">
<svg version="1.1" id="Layer_1" xmlns="http://www.w3.org/2000/svg" xmlns:xlink="http://www.w3.org/1999/xlink" x="0px" y="0px"
	 width="131px" height="65px" viewBox="0 0 131 65" enable-background="new 0 0 131 65" xml:space="preserve">
<g>
	<g>
		<path fill="#231F20" d="M56.225,17.722h-5.962v7.724h4.001v4.442h-4.001v25.185h-4.323V13.28h10.285V17.722z"/>
		<path fill="#231F20" d="M69.23,36.651c-0.039,1.201-0.28,2.282-0.721,3.202c-0.36,0.8-0.92,1.561-1.72,2.161
			c-0.801,0.641-1.882,1.001-3.323,1.001c-1.439,0-2.561-0.36-3.36-1.001c-0.801-0.6-1.321-1.361-1.682-2.161
			c-0.439-0.92-0.679-2.001-0.721-3.202V19.324c0.042-1.161,0.281-2.242,0.721-3.162c0.36-0.8,0.881-1.601,1.682-2.201
			c0.8-0.601,1.921-1.001,3.36-1.001c1.441,0,2.522,0.4,3.323,1.001c0.8,0.6,1.359,1.4,1.72,2.201
			c0.44,0.92,0.682,2.001,0.721,3.162V36.651z M64.908,19.324c0-0.801-0.159-1.361-0.56-1.841c-0.2-0.2-0.521-0.321-0.882-0.321
			c-0.76,0-1.12,0.561-1.28,1.082c-0.119,0.32-0.159,0.68-0.159,1.081v17.328c0,0.841,0.2,1.401,0.601,1.841
			c0.2,0.201,0.48,0.321,0.839,0.321c0.762,0,1.121-0.481,1.282-1.081c0.12-0.28,0.159-0.641,0.159-1.081V19.324z"/>
		<path fill="#231F20" d="M79.875,42.694l-2.241-12.406h-1.16v12.406h-4.321V13.28h4.321c5.162,0,7.364,2.921,7.364,8.484
			c0,2.921-0.76,5.563-2.401,6.683l2.761,14.247H79.875z M76.474,26.286c0.601,0,1.4-0.079,2.041-0.64
			c0.641-0.56,1.16-1.641,1.16-3.722c0-2.081-0.52-3.202-1.16-3.762c-0.641-0.561-1.44-0.6-2.041-0.6V26.286z"/>
		<path fill="#231F20" d="M85.077,17.722V13.28h12.486v4.442h-4.082v24.972H89.16V17.722H85.077z"/>
		<path fill="#231F20" d="M99.244,13.28h4.322v29.414h-4.322V13.28z"/>
		<path fill="#231F20" d="M117.052,17.722h-5.962v7.724h4.002v4.442h-4.002v12.806h-4.321V13.28h10.283V17.722z"/>
		<path fill="#231F20" d="M123.896,22.685l0.12,0.28h0.08l0.12-0.28l2.161-9.405h4.242l-4.403,16.888v12.526h-4.321V30.168
			l-4.403-16.888h4.242L123.896,22.685z"/>
	</g>
	<g>
		<polygon fill="#08BFAD" points="27.271,11.453 27.27,11.455 27.271,11.454 		"/>
		<path fill="#08BFAD" d="M8.846,43.091c-0.051,0.075-0.102,0.151-0.151,0.226c-0.156,0.092-0.227,0.314-0.453,0.303
			c-0.015,0.119,0.051,0.277-0.151,0.302c-0.104,0.179-0.031,0.239,0.151,0.227c0.049-0.102,0.125-0.177,0.227-0.227
			c0.201-0.201,0.402-0.402,0.604-0.604c0.023-0.065,0.151-0.094,0.105-0.166C9.1,43.031,8.957,43.114,8.846,43.091z"/>
		<path fill="#08BFAD" d="M32.271,43.669c-0.378-0.142-0.18-0.505-0.322-0.729c-0.536-0.011-0.19,0.271-0.149,0.452
			c-0.122,0.126-0.126,0.252,0.001,0.377c0.124,0.003,0.23,0.108,0.36,0.066C32.244,43.809,32.361,43.704,32.271,43.669z"/>
		<path fill="#08BFAD" d="M8.693,10.546c-0.001-0.025-0.002-0.05-0.002-0.076c0-0.001,0-0.002,0-0.004v0.001
			c0.003,0,0.005-0.001,0.008-0.001c0.249-0.017,0.218-0.206,0.222-0.373C8.893,9.907,8.709,9.895,8.646,9.968
			c-0.111,0.126-0.349,0.184-0.313,0.406C8.363,10.582,8.548,10.539,8.693,10.546z"/>
		<path fill="#08BFAD" d="M42.673,12.729c-0.047-0.059-0.097-0.085-0.147-0.097C42.573,12.667,42.622,12.701,42.673,12.729z"/>
		<path fill="#08BFAD" d="M7.771,42.792c-0.113-0.011-0.23,0.008-0.265,0.144c-0.044,0.181,0.151,0.162,0.229,0.242
			c0.112,0.118,0.18-0.068,0.279-0.086c0.051-0.025,0.101-0.05,0.15-0.075C8.176,42.694,7.933,42.808,7.771,42.792z"/>
		<path fill="#08BFAD" d="M11.062,11.194c0.146-0.114,0.275-0.315,0.222-0.464c-0.08-0.22-0.213,0.017-0.325,0.043
			c-0.145,0.119-0.158,0.282-0.15,0.452C10.896,11.217,11.005,11.239,11.062,11.194z"/>
		<path fill="#08BFAD" d="M14.356,42.865c-0.1,0-0.199,0-0.301,0c-0.015,0.165,0.174,0.127,0.227,0.226
			c0.078,0.154,0.195,0.245,0.378,0.227c0.06-0.032,0.073-0.089,0.075-0.151c0-0.024,0-0.05,0-0.075
			C14.609,43.016,14.483,42.94,14.356,42.865z"/>
		<path fill="#08BFAD" d="M15.641,42.489c-0.118-0.015-0.226-0.053-0.302-0.152c-0.024,0-0.05-0.001-0.074-0.002
			c-0.109-0.1-0.232-0.131-0.287,0.034c-0.054,0.159,0.047,0.253,0.21,0.271l0,0c0.025-0.001,0.05-0.002,0.075-0.004
			c0.075,0.076,0.152,0.152,0.227,0.229c0.145-0.008,0.222-0.081,0.226-0.226C15.654,42.606,15.642,42.55,15.641,42.489z"/>
		<path fill="#08BFAD" d="M12.093,41.733c0,0.048,0.001,0.096,0.002,0.145l0,0c0.188-0.001,0.381,0.036,0.562-0.064
			C12.47,41.757,12.329,41.406,12.093,41.733z"/>
		<path fill="#08BFAD" d="M5.052,45.058c-0.146,0.01-0.204,0.08-0.133,0.223c0.025,0,0.051,0,0.075,0.001
			c0.151,0.024,0.294,0.103,0.453,0.075C5.414,45.127,5.27,45.04,5.052,45.058z"/>
		<path fill="#08BFAD" d="M0.69,32.748c0.179-0.109,0.208-0.267,0.15-0.453c-0.149-0.006-0.199,0.12-0.278,0.207
			C0.379,32.702,0.499,32.743,0.69,32.748z"/>
		<path fill="#08BFAD" d="M19.577,11.755c0.128-0.007,0.084-0.083,0.064-0.151c-0.118-0.069-0.218-0.181-0.376-0.152
			c-0.06,0.038-0.155,0.079-0.085,0.159C19.279,11.726,19.424,11.763,19.577,11.755z"/>
		<path fill="#08BFAD" d="M8.652,11.058c0.155,0.052,0.253-0.042,0.269-0.209c-0.094-0.052-0.191-0.087-0.302-0.076
			C8.521,10.881,8.485,11.003,8.652,11.058z"/>
		<path fill="#08BFAD" d="M4.918,40.902c0-0.075,0-0.149-0.001-0.223c-0.146-0.004-0.3-0.023-0.379,0.148
			C4.617,41.095,4.778,40.944,4.918,40.902L4.918,40.902z"/>
		<path fill="#08BFAD" d="M2.683,44.367c-0.06,0.116,0.029,0.183,0.122,0.235c0.209-0.022,0.251-0.127,0.151-0.303
			C2.861,44.313,2.739,44.256,2.683,44.367z"/>
		<path fill="#08BFAD" d="M5.579,44.635c-0.141,0.011-0.131,0.155-0.13,0.268c0.024,0,0.05,0,0.073,0.001
			c0.102,0,0.201,0,0.303-0.001l0,0C5.807,44.754,5.739,44.622,5.579,44.635z"/>
		<path fill="#08BFAD" d="M28.581,41.807c-0.078,0.005-0.199-0.042-0.215,0.083c-0.014,0.109,0.084,0.139,0.177,0.144
			c0.097,0.005,0.171-0.03,0.206-0.127C28.738,41.798,28.652,41.803,28.581,41.807z"/>
		<path fill="#08BFAD" d="M5.872,10.771c0.078-0.002,0.159-0.014,0.159-0.111c0.001-0.096-0.081-0.112-0.159-0.11
			c-0.085,0.002-0.189-0.003-0.176,0.127C5.708,10.778,5.8,10.765,5.872,10.771z"/>
		<path fill="#08BFAD" d="M0.918,39.769c0.055,0.086,0.142,0.069,0.225,0.073c0.057-0.092,0.088-0.189,0.074-0.298
			C1.052,39.531,0.893,39.527,0.918,39.769z"/>
		<path fill="#08BFAD" d="M2.729,40.978L2.729,40.978L2.729,40.978c-0.075-0.025-0.151-0.05-0.228-0.076
			c-0.119-0.067-0.216-0.152-0.229-0.3c-0.082-0.004-0.169,0.01-0.225-0.073c-0.087,0.023-0.172-0.117-0.267-0.007
			c0.082,0.16,0.216,0.268,0.345,0.379c0.052,0.05,0.101,0.1,0.151,0.15c0.072,0.105,0.211,0.082,0.301,0.153
			C2.73,41.197,2.73,41.087,2.729,40.978z"/>
		<path fill="#08BFAD" d="M1.37,35.616c0.025-0.075,0.05-0.151,0.075-0.227c-0.094-0.052-0.191-0.087-0.302-0.075
			C1.136,35.477,1.174,35.606,1.37,35.616z"/>
		<path fill="#08BFAD" d="M9.146,42.335c0-0.075,0-0.15,0-0.225c-0.099,0.018-0.263-0.053-0.274,0.095
			C8.859,42.403,9.045,42.31,9.146,42.335z"/>
		<path fill="#08BFAD" d="M2.05,29.877c0.002-0.147-0.03-0.281-0.151-0.379c-0.099,0.045-0.151,0.118-0.147,0.229
			c-0.002,0.025-0.004,0.05-0.004,0.074C1.86,29.782,1.853,30.229,2.05,29.877z"/>
		<path fill="#08BFAD" d="M7.411,43.242c-0.084,0.003-0.173-0.012-0.228,0.076c0.001,0,0.001,0.002,0.001,0.002
			C7.157,43.418,7,43.471,7.073,43.599c0.068,0.121,0.174,0.006,0.262,0.021l0,0c0.067-0.044,0.134-0.09,0.2-0.134
			c0.007-0.006,0.017-0.011,0.025-0.018c0.025,0,0.052,0.001,0.076,0.001C7.654,43.301,7.577,43.226,7.411,43.242z"/>
		<path fill="#08BFAD" d="M9.146,10.545c0-0.074,0-0.148,0-0.223c-0.06,0.009-0.125,0.015-0.135,0.093
			C8.999,10.516,9.069,10.536,9.146,10.545z"/>
		<path fill="#08BFAD" d="M39.601,45.741c-0.069-0.024-0.15,0.018-0.162,0.113c-0.014,0.103,0.031,0.187,0.138,0.174
			c0.338-0.038,0.624,0.145,0.938,0.209c0.076,0.017,0.151,0.035,0.167-0.083c-0.02-0.026-0.037-0.065-0.066-0.082
			C40.298,45.895,39.936,45.859,39.601,45.741z"/>
		<path fill="#08BFAD" d="M43.595,44.301c-0.174,0.011-0.216-0.148-0.317-0.228c-0.252-0.199-0.503-0.104-0.755,0
			c-0.027,0.025-0.053,0.052-0.081,0.075c-0.218,0.173-0.223,0.374-0.014,0.534c0.112,0.086,0.25,0,0.209-0.066
			c-0.224-0.36,0.143-0.288,0.263-0.393c0.075,0,0.151,0,0.228,0c0.003,0.125-0.11,0.155-0.18,0.221
			c-0.062,0.061-0.132,0.12-0.104,0.223c0.016,0.058,0.064,0.074,0.113,0.077c0.112,0.007,0.19-0.037,0.233-0.147
			c0.022-0.063-0.014-0.16,0.1-0.182c0.062,0.053,0.119,0.127,0.192,0.158c0.128,0.053,0.262,0.034,0.302-0.12
			C43.821,44.306,43.695,44.294,43.595,44.301z"/>
		<path fill="#08BFAD" d="M43.627,43.357c0.129-0.069,0.014-0.176,0.027-0.265c-0.126-0.077-0.278-0.107-0.378-0.227
			c-0.132-0.009-0.26,0.002-0.375,0.075c0.018,0.347,0.382,0.141,0.51,0.319C43.459,43.324,43.526,43.411,43.627,43.357z"/>
		<path fill="#08BFAD" d="M33.385,42.489c-0.167-0.04-0.301-0.289-0.448-0.192c-0.155,0.101,0.149,0.253,0.072,0.417
			c0.141,0.046,0.302,0.191,0.381-0.076c-0.002-0.038-0.003-0.076-0.004-0.115C33.386,42.512,33.385,42.5,33.385,42.489z"/>
		<path fill="#08BFAD" d="M42.966,44.997c-0.074,0.021-0.13,0.077-0.127,0.158c0.006,0.146,0.12,0.121,0.214,0.124
			c0.017,0.153,0.088,0.293,0.246,0.271c0.163-0.023,0.106-0.162,0.054-0.269c-0.071-0.029-0.122-0.077-0.146-0.152h0.001
			C43.185,44.979,43.084,44.963,42.966,44.997z"/>
		<path fill="#08BFAD" d="M41.266,45.737c-0.102,0-0.254-0.033-0.231,0.145c0.021,0.159,0.167,0.152,0.292,0.155
			c0.109-0.006,0.258,0,0.253-0.144C41.571,45.699,41.393,45.737,41.266,45.737z"/>
		<path fill="#08BFAD" d="M35.643,41.898c-0.065-0.018-0.14,0.023-0.107,0.096c0.058,0.124,0.148,0.231,0.295,0.252
			c0.071,0.01,0.11-0.04,0.11-0.126C35.906,41.973,35.771,41.935,35.643,41.898z"/>
		<path fill="#08BFAD" d="M34.519,42.79c-0.188-0.029-0.31,0.039-0.342,0.237c-0.029,0.174,0.104,0.125,0.19,0.14
			c0.05-0.075,0.101-0.15,0.151-0.226c0-0.027,0-0.055,0-0.082C34.519,42.835,34.519,42.812,34.519,42.79z"/>
		<path fill="#08BFAD" d="M34.291,42.185c0-0.025,0-0.05,0-0.075c-0.012-0.144-0.083-0.225-0.234-0.219
			c-0.087,0.003-0.132,0.052-0.139,0.137c-0.014,0.167,0.026,0.293,0.222,0.308c0.026-0.025,0.051-0.05,0.076-0.076
			C34.241,42.235,34.267,42.209,34.291,42.185z"/>
		<path fill="#08BFAD" d="M33.537,42.261c0.009,0.105-0.035,0.223,0.075,0.303c0.116-0.002,0.238-0.007,0.216-0.17
			C33.804,42.208,33.647,42.279,33.537,42.261z"/>
		<path fill="#08BFAD" d="M41.872,45.869c0.148-0.027,0.188-0.155,0.244-0.308c-0.178-0.009-0.288,0.034-0.334,0.182
			C41.761,45.811,41.807,45.881,41.872,45.869z"/>
		<path fill="#08BFAD" d="M43.731,42.565c-0.051-0.002-0.101,0-0.15-0.001c0.009,0.061,0.006,0.127,0.027,0.182
			c0.03,0.074,0.094,0.116,0.18,0.101c0.059-0.011,0.081-0.056,0.086-0.107C43.884,42.636,43.842,42.57,43.731,42.565z"/>
		<rect x="43.58" y="42.564" fill="#08BFAD" width="0.001" height="0"/>
		<path fill="#08BFAD" d="M43.065,43.602c0.011,0.099,0.074,0.155,0.171,0.156c0.069,0,0.108-0.046,0.101-0.141
			c-0.013-0.077-0.072-0.135-0.17-0.135C43.098,43.482,43.057,43.529,43.065,43.602z"/>
		<path fill="#08BFAD" d="M35.188,41.291c-0.094-0.006-0.137,0.043-0.14,0.131c-0.002,0.082,0.022,0.149,0.12,0.147
			c0.082-0.002,0.145-0.045,0.152-0.129C35.329,41.35,35.265,41.31,35.188,41.291z"/>
		<path fill="#08BFAD" d="M32.102,42.186c0-0.025-0.002-0.05-0.002-0.075c-0.113,0.024-0.257-0.065-0.337,0.078
			c-0.011,0.021,0.034,0.095,0.069,0.114C31.963,42.371,32.043,42.297,32.102,42.186z"/>
		<path fill="#08BFAD" d="M36.104,41.731c-0.051,0-0.101,0-0.15,0.001c0.011,0.089-0.022,0.229,0.123,0.205
			C36.214,41.914,36.192,41.814,36.104,41.731z"/>
		<path fill="#08BFAD" d="M41.514,45.435c-0.003,0.011-0.029,0.048-0.021,0.076c0.013,0.04,0.049,0.071,0.076,0.107
			c0.025-0.021,0.067-0.037,0.073-0.063C41.656,45.501,41.61,45.474,41.514,45.435z"/>
		<path fill="#08BFAD" d="M44.263,23.989c-0.277,0.149-0.201,0.3-0.002,0.45c0.024,0,0.047,0,0.069-0.001
			C44.316,24.288,44.394,24.123,44.263,23.989z"/>
		<path fill="#08BFAD" d="M44.269,20.055c0.101-0.173,0.102-0.345-0.001-0.517C44.268,19.71,44.268,19.882,44.269,20.055z"/>
		<path fill="#08BFAD" d="M42.976,39.093c0.094-0.267,0.393-0.061,0.528-0.23c0.024,0,0.049,0,0.075,0
			c0.012-0.062,0.021-0.139,0.099-0.135c0.141,0.007,0.362,0.094,0.361-0.107c0-0.237-0.249-0.115-0.389-0.131
			c-0.143-0.015-0.26-0.073-0.388-0.125c-0.212-0.084-0.252-0.219-0.137-0.409c0.076-0.049,0.152-0.098,0.229-0.148
			c0.095-0.008,0.202-0.047,0.2-0.138c-0.007-0.247,0.18-0.305,0.369-0.371c-0.085-0.076-0.14-0.125-0.195-0.174
			c-0.129-0.074-0.259-0.145-0.386-0.222c-0.202-0.124-0.395-0.255-0.37-0.536l0,0l0,0c0.001-0.02,0.005-0.039,0.011-0.057
			c0.165-0.034,0.321-0.009,0.469,0.074c0.061,0.033,0.125,0.026,0.16-0.039c0.039-0.067,0.003-0.137-0.056-0.155
			c-0.211-0.067-0.279-0.214-0.297-0.421c-0.011-0.12-0.106-0.161-0.223-0.089c-0.022-0.017-0.044-0.035-0.066-0.052
			c-0.049-0.125-0.099-0.25-0.158-0.404c0.155,0.035,0.272,0.062,0.391,0.088c0.121,0.024,0.239,0.055,0.361,0.072
			c0.069,0.01,0.168,0.027,0.197-0.053c0.039-0.112-0.061-0.146-0.146-0.169c-0.189-0.051-0.379-0.099-0.569-0.148
			c-0.052-0.368,0.242-0.171,0.379-0.231c0.114-0.013,0.24,0.045,0.355-0.066c-0.065-0.111-0.147-0.15-0.266-0.091
			c-0.005-0.021-0.012-0.043-0.019-0.064c-0.104-0.134-0.311-0.122-0.368-0.067c-0.248,0.234-0.464,0.056-0.693-0.002
			c-0.073-0.077-0.164-0.107-0.27-0.1c-0.065-0.082-0.118-0.168-0.081-0.28c0.122-0.029,0.244-0.057,0.365-0.086v0
			c0.211,0.013,0.365-0.068,0.427-0.276c0.051-0.169-0.004-0.293-0.192-0.331c-0.008-0.021-0.013-0.042-0.015-0.064
			c0.035-0.179,0.187-0.406-0.193-0.389c-0.095,0.004-0.044-0.089-0.031-0.143c0.053-0.022,0.106-0.044,0.158-0.066
			c0.083-0.021,0.146-0.04,0.186-0.147c0.088-0.24-0.02-0.425-0.119-0.62c0.006-0.019,0.011-0.04,0.014-0.06l0.033-0.002
			l0.033,0.002c0.196-0.159,0.248-0.429,0.176-0.923c0.095-0.045,0.161,0.048,0.243,0.052c0.141,0.006,0.254-0.058,0.279-0.197
			c0.026-0.147-0.104-0.132-0.198-0.156c-0.275-0.069-0.365-0.293-0.431-0.534c0.058-0.113,0.1-0.229,0.094-0.358v0
			c0.105-0.09,0.198-0.207,0.362-0.162c0.146,0.409,0.146,0.409,0.775,0.293c-0.281-0.098-0.276-0.353-0.401-0.523
			c0.067-0.143,0.286-0.322-0.086-0.361c0.001,0,0.001,0,0.001,0h-0.001c-0.096,0.092-0.191,0.185-0.288,0.277
			c-0.076,0.005-0.151,0.01-0.227,0.015c-0.023-0.026-0.047-0.053-0.069-0.079c-0.031-0.15-0.151-0.339,0.17-0.307
			c0.122,0.012,0.149-0.096,0.131-0.205c0,0,0,0,0-0.001c0.026-0.015,0.052-0.03,0.076-0.046c0,0,0,0,0.001,0
			c0.159,0.063,0.277-0.008,0.336-0.143c0.066-0.15-0.105-0.164-0.175-0.237c-0.058-0.063-0.104-0.138-0.154-0.208
			c-0.022-0.118-0.017-0.22,0.119-0.275c0.159-0.065,0.162-0.189,0.131-0.341c-0.036-0.184-0.112-0.385,0.179-0.476
			c0.107-0.033,0.022-0.144-0.054-0.197c-0.079-0.143,0.004-0.289-0.011-0.434c0.013-0.022,0.025-0.045,0.037-0.067l0,0
			c0.04,0.056,0.08,0.073,0.121,0.002c-0.018-0.18-0.097-0.358-0.007-0.539c0.061-0.095,0.146-0.046,0.228-0.048
			c0.119-0.003,0.19-0.056,0.073-0.172c-0.069-0.055-0.139-0.109-0.207-0.163c0,0,0,0,0,0c-0.031-0.048-0.061-0.097-0.092-0.146
			c-0.052-0.202,0.05-0.487-0.288-0.533c-0.073-0.149-0.056-0.297,0.028-0.43c0.074-0.121,0.094-0.204-0.02-0.327
			c-0.255-0.281-0.356-0.604-0.158-0.968c0.101-0.042,0.147-0.115,0.124-0.227c0.02-0.358-0.229-0.688-0.11-1.062
			c0.018-0.057-0.032-0.141-0.063-0.208c-0.041-0.093-0.006-0.167,0.043-0.241v0c0.435-0.283,0.439-0.301,0.207-0.921v0
			c0.14-0.233,0.08-0.55,0.311-0.746c0.137-0.125,0.105-0.266-0.032-0.33c-0.215-0.099-0.256-0.236-0.201-0.444
			c0.022-0.089-0.051-0.13-0.132-0.144c-0.004-0.02-0.008-0.039-0.015-0.057c0.022-0.296,0.125-0.58-0.048-0.889
			c-0.084-0.155-0.078-0.413,0.064-0.6c0.066-0.09,0.09-0.175-0.003-0.26c-0.049-0.176-0.299-0.347,0.002-0.537
			c0.038-0.024,0.012-0.233-0.045-0.311c-0.101-0.137-0.091-0.307-0.187-0.439c0.146-0.284,0.009-0.592,0.078-0.883
			c0.073-0.152,0.234-0.171,0.361-0.242c0.172-0.205,0.031-0.261-0.143-0.301l0,0c0.004-0.131,0.148-0.293-0.082-0.374
			c-0.096-0.2-0.113-0.4-0.002-0.6c0.073,0.056,0.156,0.101,0.168,0.211c0.015,0.122,0.062,0.232,0.218,0.178
			c0.13-0.045,0.208-0.146,0.197-0.289c-0.008-0.1-0.065-0.19-0.066-0.293c-0.012-0.06,0.012-0.089,0.043-0.11
			c-0.038,0.008-0.073,0.026-0.101,0.07c-0.136-0.375,0.184-0.053,0.23-0.15c0.201-0.002,0.401-0.004,0.604-0.006
			c-0.002-0.023-0.004-0.047-0.005-0.07c-0.173-0.046-0.374,0.09-0.53-0.077c0-0.075,0-0.15,0-0.224
			c-0.115-0.075-0.242-0.086-0.375-0.077c0.002,0.029,0.004,0.057,0.006,0.085c-0.004,0.004-0.009,0.008-0.013,0.012
			c-0.016,0.013-0.031,0.027-0.046,0.041c-0.006,0.005-0.013,0.011-0.019,0.017c-0.097,0.041-0.193,0.087-0.305,0.07
			c-0.284,0.016-0.585-0.055-0.833,0.158l0,0c-0.024-0.003-0.05-0.007-0.074-0.011c-0.022-0.008-0.047-0.024-0.07-0.024
			c-0.182,0.003-0.379,0.04-0.519-0.042c-0.013-0.008-0.023-0.021-0.037-0.032c-0.062-0.052-0.11-0.134-0.131-0.271
			c-0.083-0.001-0.169,0.012-0.227-0.069c-0.099-0.002-0.198-0.004-0.297-0.005c-0.001-0.001-0.002-0.001-0.002-0.002c0,0,0,0,0,0
			l0,0c-0.002,0-0.003-0.002-0.003-0.002c-0.008-0.121-0.055-0.21-0.191-0.212c-0.049,0-0.099,0.032-0.094,0.091
			c0.016,0.172,0.153,0.111,0.251,0.125c0.006,0,0.013,0,0.02-0.001c0.002,0.003,0.006,0.006,0.009,0.009
			c-0.047,0.05-0.094,0.1-0.141,0.149c-0.376-0.058-0.754-0.115-1.131-0.173c-0.116-0.148-0.277-0.202-0.457-0.212
			c-0.006-0.016-0.01-0.032-0.013-0.047c0.004-0.01,0.008-0.02,0.013-0.03l-0.017,0.019c-0.283-0.07-0.64,0.039-0.804-0.328
			c-0.079-0.046-0.159-0.093-0.239-0.14c0.002-0.026,0.002-0.052,0.002-0.078l0.006-0.005c-0.003,0.001-0.005,0.002-0.008,0.003
			c-0.045-0.041-0.123-0.08-0.126-0.124c-0.027-0.378-0.21-0.272-0.406-0.138c-0.051,0.035-0.102,0.07-0.152,0.105
			c-0.253,0.176-0.489,0.435-0.83,0.166l0.011-0.012c-0.006,0.003-0.011,0.006-0.017,0.009c-0.17-0.101-0.332-0.218-0.513-0.293
			c-0.175-0.074-0.413-0.269-0.546-0.117c-0.247,0.286-0.481,0.172-0.739,0.098c-0.21-0.183-0.369-0.054-0.529,0.084
			c-0.247-0.042-0.514-0.181-0.69,0.136c-0.129,0.004-0.264,0.057-0.376-0.053l0.01-0.013c-0.004,0.004-0.008,0.008-0.013,0.012
			c-0.133-0.037-0.27-0.104-0.369,0.063c-0.203,0.064-0.411-0.035-0.62,0.035c-0.329,0.11-0.652,0.058-0.953-0.115
			c-0.386-0.372-0.863-0.092-1.29-0.178c-0.05-0.01-0.114,0.038-0.104,0.124c0.041,0.339-0.192,0.366-0.43,0.354
			c-0.179-0.008-0.313,0.068-0.448,0.161c-0.001,0-0.002,0-0.003,0c-0.152-0.026-0.323,0.059-0.457-0.077
			c-0.025,0-0.05-0.002-0.074-0.005c-0.132-0.032-0.325,0.093-0.376-0.146c-0.228-0.092-0.453,0.184-0.68,0l0,0h-0.001l0.001,0
			c-0.2-0.025-0.402-0.05-0.603-0.075c0.104,0.395-0.171,0.464-0.454,0.527c-0.277,0.292-0.678,0.052-0.981,0.226
			c-0.171,0.014-0.395,0.213-0.474-0.133c-0.004-0.021-0.134-0.013-0.206-0.018c0,0,0,0,0,0c-0.085,0.103-0.193,0.079-0.311,0.058
			c0.236-0.315,0.051-0.364-0.219-0.359c-0.024,0.024-0.05,0.049-0.075,0.074c-0.216,0.271-0.589,0.155-0.822,0.364
			c-0.104-0.123,0.138-0.206-0.008-0.311c-0.134-0.097-0.246-0.019-0.343,0.049c-0.254,0.182-0.521,0.169-0.779,0.048
			c-0.249-0.118-0.419-0.299-0.24-0.603l0,0c-0.182-0.045-0.281,0.15-0.447,0.151c-0.107,0.176,0.323,0.354-0.003,0.528
			c-0.04,0.021-0.081,0.035-0.125,0.048c-0.164,0.054-0.343,0.076-0.484,0.202c-0.109,0.098-0.206,0.036-0.275-0.069
			c-0.008-0.011-0.016-0.019-0.021-0.03l0,0c0-0.026,0-0.051,0-0.077c-0.104-0.011-0.223,0.035-0.302-0.075
			c-0.301,0.031-0.539,0.235-0.828,0.299c-0.008-0.026-0.008-0.054-0.007-0.083c0.006-0.12,0.048-0.254-0.147-0.292
			c-0.146,0.001-0.302-0.024-0.377,0.151c-0.032,0.061-0.088,0.074-0.15,0.075l0,0l0,0c-0.156-0.256-0.505-0.082-0.677-0.303
			c-0.026-0.049-0.052-0.098-0.079-0.146c-0.065-0.001-0.132-0.002-0.198-0.003c-0.01,0-0.02,0-0.029,0
			c-0.05,0.025-0.1,0.05-0.149,0.075c-0.215,0.006-0.473-0.054-0.453,0.303c-0.011,0.105,0.034,0.225-0.078,0.305
			c-0.044-0.023-0.079-0.052-0.113-0.084c-0.044-0.042-0.082-0.089-0.111-0.145c-0.026-0.023-0.051-0.047-0.076-0.072
			c-0.092-0.005-0.158-0.051-0.203-0.125c-0.007-0.011-0.018-0.016-0.021-0.028c0-0.025,0-0.051,0-0.077
			c-0.127,0-0.253,0.001-0.379,0.001c0.048,0.101,0.115,0.211-0.078,0.229c-0.024-0.002-0.049-0.004-0.072-0.006
			c-0.184,0.06-0.28,0.317-0.527,0.228c-0.003-0.003-0.006-0.005-0.009-0.008c-0.093-0.092-0.187-0.184-0.278-0.275
			c-0.031-0.031-0.062-0.061-0.093-0.091c-0.095-0.027-0.216-0.149-0.276,0.003c-0.062,0.152,0.083,0.229,0.197,0.299
			c0,0.037,0.003,0.069,0.012,0.096c-0.009,0.187-0.277,0.004-0.341,0.124c0.143,0.299,0.392,0.086,0.597,0.126
			c-0.125,0.188-0.285,0.257-0.486,0.252c-0.071-0.085-0.147-0.072-0.231-0.017c-0.091,0.06-0.048,0.268-0.205,0.226
			c-0.175-0.047,0.037-0.227-0.071-0.322c-0.022-0.02-0.018-0.071-0.026-0.108c0.024-0.026,0.05-0.051,0.075-0.076
			c0.002,0,0.003,0,0.005,0l-0.004-0.002c-0.082-0.413-0.204-0.496-0.557-0.39c-0.03,0.01-0.081-0.039-0.121-0.061l0.002-0.003
			c-0.002,0.001-0.002,0.002-0.004,0.003c-0.258-0.138-0.533-0.179-0.822-0.149c-0.002,0-0.003,0-0.005,0
			c-0.03,0.077-0.043,0.124,0.07,0.157c0.139,0.041,0.273,0.11,0.424,0.182c0.014,0.027,0.025,0.054,0.035,0.083
			c-0.141,0.062-0.261,0.097-0.097,0.289c0.153,0.181-0.005,0.167-0.132,0.121c-0.024-0.004-0.049-0.005-0.074-0.005l0,0
			c-0.248-0.354-0.453-0.74-0.758-1.054c-0.049-0.026-0.097-0.053-0.145-0.079c-0.001-0.004-0.001-0.008-0.001-0.012
			c-0.002-0.021-0.003-0.041-0.005-0.062c-0.154-0.184-0.425-0.197-0.57-0.394c-0.042-0.057-0.084-0.146-0.169-0.068
			c-0.079,0.073-0.173,0.157-0.198,0.251c-0.026,0.099,0.089,0.138,0.179,0.134c0.276-0.01,0.249,0.127,0.153,0.301
			c-0.126,0.197-0.25,0.178-0.374-0.002c-0.054-0.048-0.106-0.097-0.16-0.145c-0.045-0.251-0.173-0.382-0.444-0.303
			c-0.093,0.133,0.082,0.36-0.152,0.445c-0.025,0.026-0.05,0.052-0.075,0.079c-0.028,0.023-0.058,0.047-0.087,0.071c0,0,0,0,0,0
			c0,0,0,0,0,0c-0.068-0.038-0.193,0.096-0.222-0.07c-0.253-0.476-0.835-0.473-1.185-0.811c-0.067-0.064-0.165,0.021-0.243,0.057
			c0.008,0.148-0.285,0.177-0.146,0.376l0,0c0.062,0.112-0.042,0.062-0.077,0.078c-0.188,0.097-0.334,0.154-0.393-0.155
			c-0.039-0.203-0.077-0.481-0.439-0.412c0.089-0.182,0.191-0.317,0.148-0.491c-0.132-0.026-0.271-0.082-0.312,0.129
			c-0.022,0.115-0.132,0.088-0.216,0.096c-0.002,0-0.004,0-0.006,0.001c-0.07,0.004-0.14,0.007-0.21,0.011v0
			c-0.028-0.003-0.057-0.006-0.084-0.009c-0.004,0.166-0.198,0.268-0.15,0.45c0.048,0.026,0.096,0.052,0.145,0.079l0.002,0.001
			c-0.028,0.141,0.216,0.226,0.097,0.37c-0.156,0.189-0.205-0.111-0.329-0.094c-0.047,0.006-0.093,0.018-0.14,0.027
			c-0.002-0.001-0.003-0.002-0.005-0.003c-0.143,0.033-0.222-0.061-0.299-0.155l0,0c0,0,0,0,0,0
			c-0.001-0.049-0.002-0.097-0.003-0.146c-0.116-0.019-0.276,0.049-0.3-0.152v-0.001c0.093-0.076,0.105-0.171,0.032-0.257
			c-0.059-0.07-0.132-0.038-0.185,0.029c-0.023,0.002-0.045,0.005-0.068,0.008l-0.008-0.008c0.002,0.003,0.005,0.006,0.008,0.009
			c-0.007,0.081,0.005,0.168-0.08,0.221c-0.147,0.009-0.328-0.004-0.149,0.224c0.025,0.02,0.052,0.04,0.077,0.06L5.97,11.465l0,0
			c0.028,0.047,0.055,0.094,0.083,0.141c-0.101-0.002-0.202-0.004-0.302-0.007c-0.384-0.021-0.093,0.251-0.16,0.367l0,0
			c-0.044,0.007-0.089,0.015-0.135,0.023c0,0-0.001,0-0.002,0c-0.044,0.306,0.262,0.561,0.107,0.886
			c-0.117-0.007-0.175-0.199-0.332-0.155c-0.004-0.019-0.008-0.036-0.011-0.054c0,0,0,0,0,0c0.03-0.246-0.07-0.462-0.151-0.684
			c-0.05,0-0.1,0-0.148,0c-0.086,0.12,0.014,0.229,0.043,0.374c-0.243-0.042-0.299-0.247-0.421-0.373c-0.025,0-0.05,0-0.075,0
			c-0.184,0.207-0.469,0.099-0.68,0.222c-0.211-0.003-0.162,0.312-0.377,0.305c0-0.075,0-0.15,0-0.226
			c-0.094-0.057-0.193-0.086-0.303-0.083c-0.082,0.013-0.176-0.003-0.23,0.085c0.001,0.071,0.003,0.143,0.004,0.214
			c0,0.004,0,0.007,0,0.011c-0.003,0.083,0.013,0.172-0.075,0.228c0.026,0.151-0.061,0.32,0.076,0.452v-0.008
			c0.004,0,0.006,0,0.01,0c0.274,0.027,0.303-0.146,0.292-0.351c0-0.006,0-0.012-0.002-0.019c0.031-0.16,0.102-0.203,0.228-0.076
			l0,0c0.216,0.148,0.199,0.33,0.075,0.526c-0.021,0.03-0.043,0.06-0.064,0.089c-0.003,0.022-0.007,0.043-0.011,0.065
			c0.043,0.294-0.052,0.562-0.151,0.829c-0.016,0.001-0.03,0.001-0.046,0.002c-0.01,0-0.019,0-0.028,0.001
			c-0.002,0.029-0.002,0.06-0.002,0.092c0.002,0.066,0,0.132-0.052,0.172c-0.021,0.018-0.052,0.031-0.096,0.038l0,0v0
			c-0.12,0.145-0.285,0.154-0.454,0.151c-0.043,0.084-0.222,0.122-0.112,0.255c0.081,0.098,0.176,0,0.262-0.027
			c0.135-0.024,0.262,0.007,0.386,0.062c0.022,0.003,0.046,0.008,0.068,0.015c0.069,0.025,0.064,0.089,0.074,0.145
			c-0.024,0.025-0.05,0.05-0.074,0.076c-0.158,0.075-0.179,0.213-0.125,0.349c0.063,0.161,0.043,0.321,0.055,0.482
			c0,0.124-0.111,0.179-0.163,0.269c-0.114,0.068-0.274-0.027-0.373,0.101c-0.002-0.001-0.004-0.002-0.007-0.002
			c-0.215,0.209-0.041,0.231,0.124,0.251c0.114,0.013,0.233,0.013,0.247,0.167c0.013,0.143-0.096,0.18-0.202,0.229
			c-0.111,0.051-0.212,0.126-0.316,0.19c-0.084,0.015-0.208,0.031-0.176,0.131c0.045,0.146,0.206,0.081,0.319,0.105
			c0.317,0.046,0.608,0.123,0.611,0.531c0.021,0.132-0.051,0.245-0.084,0.365c-0.158,0.075-0.383,0.111-0.157,0.365
			c0.133,0.147,0.054,0.267-0.102,0.354c-0.065,0.037-0.122,0.099-0.087,0.182c0.043,0.106,0.141,0.083,0.224,0.066
			c0.083-0.017,0.169-0.042,0.213-0.128c0.128-0.059,0.257-0.121,0.192,0.123c-0.021,0.081-0.037,0.164-0.056,0.245
			c-0.097,0.098-0.195,0.197-0.292,0.295c-0.001,0-0.001,0.001-0.002,0.001c-0.133,0.024-0.126,0.178-0.222,0.236
			c-0.002,0.022-0.003,0.044-0.002,0.066c-0.047,0.004-0.095,0.008-0.143,0.012c-0.079,0.074-0.156,0.147-0.235,0.221
			c-0.008,0-0.015,0.004-0.021,0.006c-0.004,0-0.008,0.002-0.011,0.003c-0.011,0.003-0.021,0.004-0.031,0.009
			c-0.139,0.047-0.035,0.29-0.232,0.291c0.01,0.114-0.057,0.27,0.137,0.289c0.168,0.016,0.16-0.118,0.168-0.23
			c0.006-0.089,0.062-0.128,0.142-0.149v0c0-0.021,0.001-0.041,0.006-0.062c0.08-0.02,0.143,0.023,0.207,0.06l0,0
			c0.044,0.021,0.123-0.004,0.079,0.107c-0.087,0.213-0.147,0.437-0.22,0.656c-0.124,0.027-0.27-0.044-0.374,0.081
			c-0.031,0.131-0.039,0.272-0.149,0.371l0.001,0.008c-0.104,0.038-0.146,0.119-0.15,0.224c-0.054,0.247-0.298,0.373-0.379,0.602
			c-0.021,0.003-0.046,0.004-0.067,0.003c0,0.105-0.047,0.221,0.059,0.305c0,0,0,0,0,0l0,0c0.008,0.02,0.012,0.039,0.014,0.06
			c-0.003,0.005-0.006,0.01-0.01,0.015l0.011-0.009c0.022,0.003,0.044,0.011,0.062,0.023c0,0.109,0.115,0.133,0.158,0.209
			L1.82,23.311c0.001,0,0.002-0.001,0.003-0.002c0.026,0,0.051-0.001,0.076-0.001c0.021,0.031,0.044,0.062,0.066,0.093
			c-0.009,0.284-0.216,0.484-0.309,0.732c-0.207,0.03-0.071,0.147-0.06,0.232c0.013,0.016,0.023,0.031,0.033,0.048h0.001
			c-0.012,0.033-0.022,0.065-0.033,0.097c0.1,0.085,0.227,0.15,0.226,0.309c0.006,0.03,0.012,0.06,0.017,0.09
			C1.807,24.955,1.774,25,1.74,25.045c-0.034,0.186,0.084,0.346,0.086,0.526c-0.049,0.104,0.07,0.209,0.043,0.313
			c-0.006,0.023-0.017,0.045-0.039,0.067c-0.003,0-0.006-0.001-0.009-0.002l0.007,0.005c-0.06,0.183,0.093,0.34,0.062,0.519
			c-0.04,0.027-0.081,0.055-0.12,0.082c-0.004,0.003-0.008,0.005-0.012,0.008l0,0c-0.054-0.002-0.107-0.005-0.161-0.007l0,0
			c-0.105,0.121-0.25,0.056-0.377,0.076C1.2,26.8,1.274,26.875,1.444,26.854c0.001,0,0.001,0,0.001,0
			c0.107-0.138,0.205-0.039,0.303,0.016c0.008-0.004,0.017-0.008,0.024-0.012c0.039,0.052,0.079,0.103,0.117,0.154
			c0.037,0.123-0.062,0.287,0.103,0.371c0.084,0.043,0.232,0.044,0.126,0.191c-0.081,0.113-0.191,0.166-0.308,0.023
			c-0.042-0.052-0.105-0.078-0.16-0.02c-0.062,0.063,0,0.113,0.034,0.162c0.065,0.088,0.113,0.212,0.258,0.173
			c0.309-0.083,0.257,0.126,0.251,0.301l0,0l0,0c-0.022,0.001-0.046,0.001-0.069,0.001c-0.024,0.026-0.05,0.053-0.074,0.079
			c-0.051,0.154-0.055,0.306,0.009,0.461c0.051,0.121,0.13,0.25-0.009,0.369c-0.01-0.001-0.016-0.001-0.024-0.001
			c-0.188-0.021-0.152,0.105-0.124,0.227L1.897,29.35c0.002-0.001,0.004-0.002,0.005-0.003c0.119,0.053,0.256,0.176,0.301-0.075
			c0.087-0.114,0.274-0.166,0.229-0.364c0.048-0.003,0.095-0.007,0.143-0.01c-0.007,0.102-0.015,0.202-0.021,0.304
			c-0.22,0.422-0.438,0.845-0.658,1.268l0,0c-0.179,0.208-0.572,0.242-0.51,0.65c0.015,0.103-0.062,0.236,0.04,0.309
			c0.142,0.103,0.208-0.081,0.314-0.119c0.116,0.078,0.072,0.198,0.082,0.305c0.046,0.079,0.165,0.109,0.15,0.227
			c0.002,0.027,0.003,0.054,0.005,0.081c0,0.003,0,0.006-0.001,0.009c-0.002,0.035-0.003,0.07-0.005,0.105
			c-0.001,0.008-0.001,0.017-0.001,0.025c-0.176,0.002-0.352,0.005-0.526,0.008c-0.02,0.028-0.04,0.057-0.06,0.084
			c-0.049,0.027-0.096,0.053-0.144,0.08c-0.107-0.017-0.165,0.027-0.174,0.135c-0.015,0.153-0.242,0.341,0.052,0.442
			c0.009,0.003,0.013,0.007,0.023,0.01c-0.01-0.001-0.017,0-0.025-0.001c-0.015-0.001-0.028,0-0.042-0.001
			c-0.157-0.004-0.309,0.039-0.461,0.077c-0.062,0.002-0.118,0.015-0.15,0.076c0.002,0.095,0.05,0.148,0.145,0.155
			c0.006,0.004,0.011,0.01,0.016,0.015c0.022,0.021,0.045,0.043,0.066,0.064c0.025,0,0.05,0,0.075,0
			c0.025-0.003,0.051-0.005,0.077-0.007c0.04-0.192,0.234-0.131,0.347-0.205c0.009-0.007,0.021-0.014,0.028-0.023l0,0
			c0.169-0.015,0.246,0.06,0.229,0.229c-0.002,0.024-0.004,0.048-0.006,0.071c-0.016,0.005-0.035,0.003-0.055-0.002
			c-0.145-0.042-0.377-0.299-0.319,0.156c0.152,0,0.302,0.167,0.455,0.004c0.108-0.01,0.208,0.016,0.3,0.074
			c0.097,0.051,0.065,0.145,0.077,0.225c-0.001,0-0.001,0.002-0.002,0.003C1.765,33.936,1.852,34.19,1.743,34.4
			c-0.112,0.103-0.12,0.258-0.039,0.34c0.177,0.179,0.082,0.351,0.074,0.544c-0.01,0.185-0.242,0.365-0.031,0.558
			c0.059,0.285,0.339,0.46,0.375,0.755c-0.002,0.209,0.271,0.127,0.311,0.294l-0.01,0.011c0.363,0.329,0.76,0.608,1.239,0.756
			c-0.063,0.108-0.253,0.064-0.214,0.139c0.164,0.318-0.172,0.314-0.268,0.46c-0.118,0.051-0.403-0.12-0.301,0.227
			c0.047,0.118,0.227,0.021,0.267,0.157c-0.341,0.221-0.293,0.192-0.027,0.494c0.208,0.236,0.479,0.09,0.667,0.25
			c-0.116,0.22-0.299,0.064-0.452,0.081c0.025,0.125,0.05,0.251,0.074,0.377c0.025,0.025,0.05,0.049,0.076,0.074
			c0.101,0.051,0.201,0.102,0.302,0.153c0.094,0.05,0.149,0.257,0.3,0.072c0.003-0.004,0.005-0.009,0.007-0.013
			c0.023-0.045,0.048-0.089,0.071-0.134C4.231,39.999,4.3,40,4.366,40.003c0.008,0,0.014,0,0.021,0
			c-0.075,0.354-0.287,0.431-0.602,0.293c-0.169,0.284,0.036,0.288,0.227,0.302c0.126-0.025,0.252-0.05,0.377-0.076
			c0.171-0.002,0.357,0.025,0.377-0.226c-0.066,0.003-0.135,0.007-0.201,0.01c0-0.032,0-0.064,0-0.096
			c0.066,0.003,0.135,0.007,0.201,0.01c0.047-0.078,0.164-0.107,0.153-0.224c0.003-0.002,0.006-0.005,0.01-0.006
			c0.063-0.033,0.117-0.075,0.141-0.147c0.075-0.029,0.15-0.057,0.226-0.086c0.021,0.023,0.042,0.048,0.062,0.071
			c0.006,0.005,0.009,0.01,0.013,0.015l0.038,0l0.037,0c0.004,0.159,0.162,0.333,0.223,0.308c0.236-0.099,0.463-0.187,0.724-0.139
			c0.002,0,0.032-0.073,0.021-0.099c-0.061-0.13-0.034-0.312-0.22-0.365c-0.019-0.005-0.036-0.01-0.054-0.014
			c-0.007-0.043-0.013-0.086-0.02-0.129c0.02-0.233,0.22-0.337,0.38-0.356c0.286-0.033,0.325,0.299,0.491,0.453
			c0.131,0.121-0.021,0.244-0.107,0.348c-0.076,0.073-0.153,0.146-0.229,0.219c-0.216,0.385-0.646,0.416-0.984,0.598
			c-0.162-0.001-0.288,0.043-0.297,0.235c-0.051,0.001-0.101,0.001-0.15,0.003l0,0c-0.001,0.061-0.011,0.117-0.07,0.15
			c-0.028,0.074-0.115,0.147-0.022,0.227c0.089,0.076,0.159,0.005,0.219-0.052c0.085-0.082,0.162-0.172,0.243-0.26l0,0
			c0.027-0.017,0.053-0.034,0.08-0.052c0.182,0.053,0.246,0.205,0.304,0.362c0.083-0.002,0.172,0.015,0.228-0.073
			c0.101-0.076,0.202-0.152,0.303-0.228c0.129,0.008,0.192-0.108,0.292-0.155c0.062-0.16,0.124-0.317,0.307-0.376
			c-0.018-0.072,0.103-0.186-0.036-0.219c-0.012-0.002-0.021-0.006-0.034-0.007c0.001-0.04,0.002-0.08,0.002-0.12
			c0-0.01,0.001-0.019,0.001-0.028c0.108-0.014,0.205,0.024,0.299,0.075c0.333-0.005,0.204,0.3,0.301,0.453c0.017,0,0.033,0,0.048,0
			c0.01,0,0.019,0,0.027,0c0.003-0.031,0.006-0.062,0.008-0.094c0.329,0.017,0.293-0.21,0.284-0.419
			c0.003-0.001,0.003-0.001,0.007-0.002c-0.004-0.001-0.006-0.003-0.007-0.003l0.005-0.004c-0.002-0.222-0.118-0.366-0.4-0.464
			c0.002-0.005,0-0.01,0.002-0.015c0.347-0.075,0.402-0.219,0.227-0.446c-0.02-0.025,0.016-0.093,0.026-0.14
			c0.026-0.1-0.137-0.2,0-0.3c0.152-0.25,0.299-0.005,0.447,0.006c0,0,0.004-0.003,0.007-0.006c0,0.001,0,0.003,0,0.004
			c-0.002,0.001-0.004,0.001-0.007,0.002c-0.215,0.188-0.069,0.426-0.106,0.633c0.126,0.053,0.167-0.125,0.31-0.054
			c-0.116,0.25-0.467,0.463-0.241,0.786c0.015,0.021,0.024,0.042,0.044,0.063c0.027-0.029,0.054-0.058,0.081-0.087
			c0.02,0.006,0.04,0.014,0.06,0.022c0.203,0.276,0.359-0.024,0.523-0.065c0.148-0.037,0.052-0.178-0.03-0.262
			c-0.114-0.118-0.047-0.173,0.073-0.2c0.094-0.021,0.158-0.067,0.187-0.161c0.067,0.035,0.087,0.086,0.042,0.147
			c-0.07,0.093-0.15,0.194,0.006,0.266c0.124,0.058,0.214-0.066,0.272-0.137c0.079-0.091,0.034-0.256,0.145-0.351
			c0.025-0.005,0.051-0.01,0.077-0.015c0.071,0.058,0.143,0.116,0.214,0.174c0.16,0.091,0.283,0.221,0.383,0.375
			c0.005,0.02,0.009,0.04,0.01,0.061c-0.002,0.101-0.004,0.202-0.006,0.304c-0.1,0.005-0.118,0.091-0.169,0.154
			c-0.108,0.129-0.181,0.071-0.204-0.074c0.146-0.195-0.073-0.217-0.146-0.308c-0.101-0.125-0.196-0.195-0.381-0.114
			c-0.421,0.186-0.168,0.408-0.06,0.628l0,0c-0.006,0.031-0.012,0.062-0.017,0.092L9.374,40.6c0.125,0.019,0.271-0.059,0.372,0.075
			l0,0c0.001,0.05,0.002,0.1,0.003,0.149v0c-0.101,0.079-0.201,0.157-0.301,0.236c-0.025,0.022-0.051,0.044-0.074,0.067
			c0.003,0.246,0.101,0.303,0.303,0.152c0.024,0,0.049-0.001,0.073-0.002c0.012-0.195,0.139-0.236,0.304-0.225
			c0.126-0.025,0.251-0.05,0.377-0.075c0.218,0.063,0.317,0.184,0.122,0.457c0.163-0.076,0.247-0.117,0.331-0.157l0.037,0h0.038
			c0.087-0.125-0.024-0.251,0-0.377c0.077-0.1,0.01-0.2-0.001-0.3c0.099-0.321,0.205,0.024,0.307-0.003
			c0.1,0.05,0.103,0.153,0.146,0.237c0.11,0.21,0.271,0.383,0.543,0.375l0,0c0.072-0.049,0.145-0.098,0.217-0.146
			c0.109-0.021,0.202,0.024,0.296,0.072c0.102,0.097,0.159,0.241,0.303,0.295c0.162,0.103,0.299,0.298,0.533,0.152
			c0.153-0.113,0.304-0.247,0.448,0.02c0.039,0.073,0.14,0.078,0.194,0.008c0.129-0.168,0.204-0.034,0.302,0.036
			c0.193,0.137,0.389,0.307,0.631,0.081c0.348-0.038,0.346-0.038,0.322,0.264c-0.008,0.099,0.057,0.154,0.14,0.192
			c0.068-0.16,0.177-0.152,0.302-0.074c0.248-0.281,0.538-0.389,0.901-0.232c0.06,0.025,0.12-0.02,0.148-0.084
			c0.004-0.02,0.007-0.039,0.009-0.059c0.122,0.001,0.243,0.003,0.366,0.004c0.237,0.182,0.5,0.121,0.761,0.076c0,0,0-0.001,0-0.002
			c0.207,0.14,0.476,0.017,0.682,0.158c0.044,0.019,0.09,0.056,0.133,0.053c0.449-0.025,0.895-0.063,1.339,0.081
			c0.137,0.045,0.328,0.042,0.418-0.146h0.038h0.033c0.003,0.002,0.007,0.004,0.011,0.007c0,0-0.007-0.007-0.007-0.007
			c0.127-0.111,0.252-0.115,0.378,0.001l-0.006,0.007c0.002-0.002,0.005-0.005,0.008-0.007c0.024,0,0.05,0.002,0.073,0.003l0,0
			c0.119,0.133,0.22,0.092,0.278-0.049c0.05-0.121,0.138-0.162,0.251-0.181c0.225,0.016,0.45-0.189,0.673,0.007
			c0.049,0.054,0.1,0.107,0.148,0.161c0.026,0.222,0.129,0.286,0.308,0.134c0.073-0.061,0.144-0.082,0.23-0.077
			c0.126,0,0.251,0,0.377,0c0.126,0,0.252,0.001,0.378,0.002l-0.002-0.002c0-0.014,0.002-0.028,0.004-0.042
			c0-0.009,0.001-0.019,0.002-0.027c0.461-0.176,0.91-0.026,1.361,0.05c0.002,0.002,0.004,0.003,0.006,0.005
			c0.053,0.054,0.117,0.095,0.192,0.077c0.486-0.118,0.972-0.242,1.457-0.363c0.002-0.001,0.003-0.001,0.003-0.002
			c0.049-0.026,0.097-0.053,0.145-0.08l0,0c0.297-0.153,0.2,0.106,0.237,0.225c-0.11,0.199-0.376,0.316-0.31,0.61
			c0.024,0.105,0.071,0.157,0.178,0.145c0.106-0.014,0.104-0.082,0.078-0.165c-0.061-0.189,0.051-0.311,0.205-0.337
			c0.289-0.049,0.387-0.274,0.518-0.476l0,0c0.005-0.02,0.01-0.04,0.018-0.06l0,0c0.046-0.027,0.091-0.055,0.137-0.083
			c0.149-0.062,0.334-0.016,0.46-0.15c0.001,0,0.001,0,0.002,0c0.24-0.11,0.287,0.166,0.444,0.223
			c0.277,0.229,0.49-0.112,0.745-0.082c0.001-0.027,0.001-0.053,0.002-0.079c0.029-0.021,0.058-0.043,0.087-0.064
			c0.17,0.004,0.341,0.009,0.511,0.014c0.035,0.047,0.059,0.117,0.105,0.136c0.296,0.122,0.137,0.209-0.017,0.301
			c-0.078,0.052-0.144,0.14-0.119,0.215c0.028,0.092,0.126-0.009,0.191,0.01c0.027,0.001,0.054,0.002,0.081,0.003
			c0.004,0,0.007,0,0.009,0c0.022,0,0.044,0,0.066,0c0.056-0.081,0.098-0.21,0.226-0.076c0.13-0.007,0.245,0.013,0.302,0.15
			c0.133,0.008,0.262-0.002,0.378-0.075c-0.015-0.169,0.151-0.201,0.229-0.3l-0.007-0.007c0.002-0.003,0.003-0.005,0.005-0.007
			c0.05-0.082,0.13-0.148,0.144-0.249c0.002-0.014,0.007-0.026,0.006-0.041c0.386,0.075,0.398,0.104,0.23,0.527v0
			c0.307-0.012,0.435-0.158,0.332-0.461c-0.063-0.189,0.038-0.216,0.186-0.213c0.008,0.022,0.016,0.043,0.021,0.066
			c0.017-0.001,0.035-0.004,0.053-0.007c0.001,0,0.003,0,0.004,0c0.027,0.029,0.055,0.058,0.082,0.086
			c0.127,0.071,0.044,0.488,0.373,0.226l0.001-0.001c0.024,0.001,0.05,0.001,0.075,0.001c0.048-0.064,0.098-0.128,0.149-0.198
			c0.117,0.084,0.1,0.224,0.2,0.314c0.188,0.169,0.01,0.18-0.12,0.188c-0.089,0.054-0.073,0.144-0.075,0.226
			c0.11,0.012,0.208-0.023,0.303-0.075c0.176-0.101,0.352-0.201,0.528-0.302c0.076-0.05,0.151-0.101,0.226-0.151
			c0.055-0.088,0.145-0.073,0.229-0.076c0.163,0.078,0.409,0.157,0.422-0.073c0.025-0.468,0.332-0.429,0.631-0.454
			c0.025,0.075,0.053,0.15,0.079,0.225c0,0.026,0,0.051,0,0.076c0.095,0.016,0.19,0.031,0.076,0.152
			c0.005,0.154,0.115,0.152,0.225,0.151c0.096-0.14,0.312-0.126,0.378-0.302c0.068,0.022,0.135,0.045,0.201,0.067
			c0.008,0.003,0.017,0.006,0.025,0.009c-0.024,0.076,0.086,0.151,0,0.227c0.023,0.093-0.111,0.182-0.016,0.265
			c0.026,0.022,0.11-0.023,0.167-0.039c0.1,0,0.2,0,0.3,0c0,0,0,0.001,0.001,0.001c0.001,0.023,0.003,0.046,0.004,0.069
			c0.227,0.114,0.267,0.386,0.456,0.53c0.104,0.01,0.176,0.063,0.221,0.155c-0.037,0.072,0.071,0.191-0.076,0.226
			c-0.053,0.043-0.106,0.051-0.16,0.046c-0.089-0.008-0.178-0.053-0.268-0.048c-0.008,0-0.016,0-0.024,0.001
			c0-0.006,0-0.011,0-0.017c0.003-0.064,0.003-0.126-0.013-0.177c-0.015-0.047-0.045-0.084-0.102-0.1
			c-0.031-0.007-0.065-0.012-0.113-0.007c-0.024,0-0.05,0-0.074,0c-0.024,0.102-0.193,0.16-0.104,0.289
			c0.122,0.178,0.27,0.006,0.405,0.013c0.029,0.449,0.462,0.291,0.683,0.451c0.099,0.002,0.199,0.003,0.297,0.005
			c0.026,0.178,0.167,0.136,0.282,0.149c0.147,0.016,0.294,0.037,0.324,0.224c0.001,0.026,0.002,0.052,0.002,0.077
			c-0.026,0.002-0.052,0.005-0.078,0.008c-0.183-0.006-0.416-0.135-0.45,0.213c0.062,0.035,0.071,0.095,0.075,0.157
			c-0.296-0.023-0.242,0.128-0.149,0.299c0.179,0.051,0.359,0.105,0.549,0.071c0.207-0.037,0.573,0.093,0.649,0.236
			c0.027,0.073,0.056,0.146,0.085,0.218c0.189,0.052,0.365-0.067,0.551-0.047c0.114,0.012,0.27,0.14,0.312-0.04
			c0.026-0.115-0.121-0.203-0.262-0.21c-0.026-0.022-0.054-0.043-0.079-0.065c-0.028-0.104-0.086-0.192-0.028-0.318
			c0.131-0.281-0.026-0.607-0.343-0.656c-0.214-0.033-0.399-0.132-0.604-0.174l0,0c0,0,0,0,0,0
			c-0.109-0.451,0.253-0.127,0.367-0.217c0.077-0.059,0.287,0.078,0.265-0.139c-0.018-0.178-0.175-0.176-0.322-0.159
			c-0.241,0.028-0.426,0.167-0.617,0.296c-0.167-0.075-0.233-0.293-0.441-0.31c-0.08-0.099-0.158-0.197-0.238-0.296
			c-0.048-0.153-0.194-0.218-0.295-0.324c-0.025-0.295-0.304-0.389-0.459-0.58c-0.074-0.028-0.148-0.055-0.222-0.082
			c0.024-0.024,0.049-0.049,0.072-0.074c0.166,0,0.42-0.051,0.391-0.186c-0.09-0.41,0.169-0.173,0.29-0.19
			c0.104,0.041,0.169,0.161,0.3,0.153c-0.084,0.305,0.415,0.885,0.771,0.896c0.171,0.078,0.342,0.155,0.515,0.232
			c0.124,0.052,0.248,0.104,0.373,0.154c0.051,0.146,0.198,0.118,0.302,0.169l0,0c0.028,0.038,0.058,0.077,0.086,0.115
			c0.032,0.159,0.278,0.2,0.227,0.405c-0.297,0.213-0.151,0.364,0.053,0.545c0.265,0.233,0.334,0.023,0.438-0.153
			c0.023-0.041,0.073-0.065,0.112-0.098c0.033-0.032,0.539-0.224,0.595-0.239c0.03-0.008,0.051-0.048,0.078-0.073
			c-0.001,0-0.001,0-0.001,0s0,0,0.001,0c0.05-0.048,0.1-0.097,0.15-0.146c0.264-0.023,0.507,0.031,0.746,0.147
			c0.229,0.111,0.352,0.06,0.247-0.221c-0.002-0.075-0.004-0.149-0.007-0.224c0.114-0.021,0.243-0.05,0.183-0.199
			c-0.049-0.12-0.158-0.141-0.262-0.033c-0.117,0.072-0.215,0.188-0.376,0.154c-0.065-0.036-0.153-0.083-0.086-0.163
			c0.104-0.124,0.169-0.208,0.04-0.374c-0.087-0.11-0.003-0.272,0.117-0.354c0.116-0.08,0.165-0.178,0.16-0.312l0,0c0,0,0,0,0.001,0
			c0.26-0.052,0.604-0.278,0.565,0.281c-0.002,0.028,0.069,0.062,0.107,0.093c0.001-0.001,0.002-0.003,0.004-0.004l-0.004,0.004
			c-0.03,0.102-0.315,0.116-0.114,0.29c0.169,0.147,0.163-0.115,0.265-0.138c0.024,0.025,0.05,0.05,0.073,0.076
			c0.017,0.124,0.069,0.226,0.211,0.209c0.138-0.016,0.186-0.115,0.15-0.247c-0.023-0.086,0.021-0.11,0.093-0.117
			c0.001-0.045,0.004-0.091,0.005-0.136c0.051-0.08,0.1-0.16,0.148-0.24c0.052-0.1,0.133-0.209,0.048-0.313
			c-0.107-0.133-0.229,0.021-0.348,0.013c-0.028-0.016-0.083-0.045-0.083-0.047c0.118-0.236,0.173-0.463,0.029-0.722
			c-0.04-0.075-0.033-0.321,0.211-0.181c0.071,0.041,0.149,0.057,0.194-0.024c0.041-0.074-0.003-0.143-0.063-0.196
			c-0.063-0.055-0.157-0.099-0.188-0.168c-0.051-0.121-0.105-0.19-0.244-0.166c-0.211,0.037-0.026,0.201-0.086,0.29
			c-0.255-0.005-0.331-0.373-0.617-0.288v-0.001c-0.021,0.002-0.041,0.001-0.062-0.007c-0.028-0.129-0.191-0.141-0.222-0.287
			C42.434,39.058,42.777,39.166,42.976,39.093z M5.901,39.249c-0.005,0.003-0.008,0.007-0.012,0.01
			c-0.025,0.018-0.049,0.035-0.072,0.053c-0.018,0.004-0.03,0.001-0.046,0.001c-0.109,0.004-0.174-0.081-0.246-0.15
			c-0.161-0.261-0.323-0.013-0.485-0.002c-0.013,0-0.025,0.003-0.04,0c-0.062-0.12-0.124-0.239-0.186-0.359
			c-0.055-0.109-0.009-0.153,0.093-0.161c0.004,0,0.008-0.001,0.013-0.002c0.256,0.285,0.627,0.137,0.938,0.24
			c0.096-0.097-0.176-0.252,0.001-0.302c0.239-0.066,0.513-0.181,0.776,0.114C6.037,38.471,6.11,39.022,5.901,39.249z M1.552,30.983
			c0.007-0.063,0.067-0.099,0.135-0.109c0.051,0,0.105,0.002,0.105,0.069c0,0.071-0.053,0.11-0.115,0.125
			C1.608,31.084,1.543,31.063,1.552,30.983z M40.249,41.724c-0.046,0.003-0.094,0.007-0.141,0.011
			c-0.012-0.006-0.02-0.015-0.028-0.023c-0.036-0.033-0.045-0.075-0.01-0.124c0.053-0.072,0.112-0.038,0.171-0.015
			c0.007,0.003,0.014,0.006,0.021,0.008c-0.004,0.042-0.008,0.083-0.012,0.124C40.25,41.712,40.249,41.718,40.249,41.724
			L40.249,41.724z M37.489,39.419c-0.031,0-0.064-0.008-0.103-0.028c0-0.196-0.007-0.396,0.237-0.467
			c0.001,0.001,0.002,0.001,0.003,0.003c0.07,0.067,0.202,0.096,0.146,0.24c-0.001,0-0.002,0-0.004,0
			c-0.098-0.002-0.141,0.053-0.163,0.145C37.586,39.393,37.543,39.421,37.489,39.419z M15.415,23.386
			c-0.006-0.012-0.011-0.022-0.016-0.033c-0.021-0.041-0.039-0.08-0.059-0.12c0.006-0.02,0.014-0.04,0.02-0.061
			c0.015-0.044,0.029-0.09,0.045-0.135c0.003-0.011,0.007-0.021,0.01-0.031c0.02,0,0.039,0.002,0.06,0.003
			c0.009,0,0.017,0,0.026,0.001C15.393,23.117,15.715,23.324,15.415,23.386z M14.21,22.407c0.028,0.02,0.058,0.04,0.086,0.06
			c0.043,0.031,0.087,0.061,0.131,0.092l0,0c-0.017,0.174,0.046,0.319,0.16,0.446c-0.052,0.05-0.104,0.1-0.157,0.149l0.006,0.008
			c-0.077-0.027-0.152-0.055-0.229-0.081c-0.023-0.082-0.046-0.165-0.067-0.247c-0.005-0.02-0.011-0.041-0.017-0.061
			C14.201,22.663,14.214,22.537,14.21,22.407z M37.841,38.181c-0.003-0.004-0.005-0.008-0.008-0.013
			c-0.098-0.126,0.003-0.206,0.08-0.29l0.001,0c0.073,0.049,0.146,0.1,0.219,0.149c0.003,0.001,0.006,0.003,0.009,0.005
			c0.027,0.088,0.17,0.151,0.11,0.243c-0.064,0.099-0.169-0.04-0.262-0.016c-0.001,0-0.002-0.001-0.003-0.001
			C37.939,38.233,37.891,38.207,37.841,38.181z M22.049,16.75L22.049,16.75c0.014,0.011,0.026,0.022,0.039,0.034
			c0.013,0.012,0.026,0.024,0.039,0.036c0.076,0.075,0.153,0.151,0.229,0.227c0.026,0.023,0.054,0.047,0.079,0.07
			c0.421,0.436,0.816,0.896,1.286,1.283c0.146,0.208,0.326,0.378,0.528,0.53c0.053,0.097,0.125,0.175,0.227,0.222l0,0l0,0
			c0.072,0.13,0.176,0.229,0.304,0.305c0.051,0.05,0.103,0.1,0.154,0.15c0.142,0.239,0.372,0.379,0.592,0.533
			c0.081,0.323,0.425,0.401,0.603,0.638c0.042,0.057,0.122-0.043,0.152-0.114c0.007-0.022,0.011-0.044,0.013-0.067
			c0.146-0.017,0.232-0.112,0.296-0.234c0.099-0.052,0.175-0.128,0.227-0.226c0.155-0.096,0.282-0.221,0.377-0.377
			c0.276-0.178,0.446-0.46,0.678-0.682c0.08-0.019,0.127-0.074,0.159-0.145c0.438-0.317,0.685-0.824,1.128-1.136
			c0.025-0.023,0.052-0.048,0.077-0.072h0.001c0.164-0.164,0.406-0.239,0.523-0.458c0.181-0.122,0.33-0.274,0.456-0.452
			c0.233,0.045,0.143,0.232,0.147,0.364c0.042,1.135-0.071,2.274,0.076,3.408c-0.171,0.485-0.1,0.999-0.038,1.474
			c0.06,0.45-0.06,0.715-0.354,1.016c-0.62,0.633-1.312,1.195-1.871,1.888c0,0-0.001,0-0.001,0c-0.558,0.299-0.834,0.88-1.283,1.287
			c-0.181,0.101-0.18,0.201-0.001,0.303c0.15,0.203,0.323,0.382,0.53,0.527c0.051,0.051,0.101,0.101,0.152,0.151
			c0.094,0.157,0.224,0.278,0.372,0.382l0,0c0.334,0.372,0.675,0.735,1.062,1.051c0.221,0.283,0.477,0.532,0.753,0.76c0,0,0,0,0,0
			c0.152,0.164,0.306,0.328,0.461,0.491c0.095,0.1,0.177,0.198,0.176,0.355c-0.014,1.814-0.022,3.629-0.029,5.444
			c0,0.145-0.046,0.303,0.071,0.431c-0.009,0.147-0.11,0.152-0.22,0.141c-0.001,0-0.001,0-0.002,0
			c-0.049-0.052-0.099-0.103-0.146-0.154c-0.146-0.203-0.331-0.365-0.518-0.526c0-0.001,0-0.001,0-0.001
			c-0.168-0.189-0.332-0.381-0.545-0.523c-0.263-0.337-0.579-0.622-0.891-0.911c-0.167-0.189-0.326-0.385-0.545-0.521
			c-0.305-0.278-0.503-0.669-0.901-0.846l0,0c0.001-0.021-0.002-0.04-0.007-0.06c-0.106-0.246-0.372-0.333-0.529-0.529
			c-0.308-0.396-0.676-0.73-1.047-1.064c-0.2-0.203-0.401-0.405-0.602-0.607c-0.076-0.074-0.152-0.149-0.229-0.224
			c-0.173-0.18-0.35-0.357-0.519-0.542c-0.245-0.266-0.329,0.04-0.476,0.128c-0.184,0.11-0.201,0.25-0.051,0.397
			c0.57,0.562,1.146,1.122,1.719,1.682c0.195,0.258,0.423,0.482,0.679,0.68c0.223,0.281,0.471,0.536,0.756,0.753
			c0.089,0.116,0.178,0.232,0.267,0.348c0.011,0.014,0.021,0.027,0.032,0.041c0.179,0.499,0.036,0.913-0.33,1.272
			c-0.123,0.121-0.231,0.255-0.346,0.383c0,0,0,0,0,0s0,0,0,0c-0.029,0.021-0.053,0.048-0.081,0.071
			c-0.219,0.176-0.414,0.376-0.597,0.59c-0.026,0.03-0.055,0.059-0.081,0.09c-0.21,0.199-0.374,0.142-0.557-0.059
			c-0.225-0.247-0.479-0.466-0.722-0.697v0c-0.027-0.03-0.055-0.061-0.081-0.092c-0.07-0.083-0.142-0.164-0.219-0.24
			c-0.631-0.62-1.267-1.237-1.899-1.854c-0.111-0.204-0.293-0.345-0.456-0.497c-0.55-0.509-0.554-0.504-1.045,0.119
			c-0.661,0.638-1.322,1.276-1.983,1.914c-0.048,0.034-0.092,0.073-0.128,0.124c-0.001,0-0.001,0.001-0.002,0.002c0,0,0,0,0,0
			c0,0,0,0,0,0c-0.431,0.373-0.839,0.769-1.203,1.208c-0.028,0.027-0.056,0.054-0.083,0.081l0,0
			c-0.098,0.071-0.193,0.142-0.291,0.212c-0.007-0.875-0.011-1.749-0.02-2.623c-0.002-0.132,0.043-0.276-0.062-0.393
			c-0.002,0-0.002,0-0.002,0.001c0,0,0,0,0-0.001c-0.002,0-0.002,0-0.002,0.001c0-0.001,0-0.002,0.002-0.002c0,0,0,0.001,0,0.001
			l0,0c0.002,0,0.002,0,0.002,0l0,0c0.005-0.155,0.142-0.309,0.002-0.464c0-0.396-0.002-0.792-0.002-1.188
			c0.127-0.169,0.051-0.365,0.068-0.548c0.029-0.297-0.063-0.605,0.075-0.893c0.185-0.071,0.219-0.288,0.375-0.386
			c0.108-0.039,0.178-0.119,0.229-0.218c0.026-0.025,0.051-0.05,0.076-0.075c0.281-0.223,0.533-0.474,0.758-0.754
			c0.165-0.088,0.255-0.25,0.371-0.386c0.164-0.085,0.281-0.218,0.382-0.37l-0.001-0.002c0.404-0.393,0.812-0.783,1.211-1.182
			c0.139-0.138,0.184-0.287-0.002-0.445c-0.209-0.178-0.402-0.376-0.603-0.565c-0.273-0.331-0.576-0.631-0.902-0.909l0,0
			c-0.052-0.05-0.102-0.101-0.152-0.151c-0.073-0.075-0.147-0.151-0.221-0.226l0,0c-0.141-0.212-0.322-0.38-0.542-0.507v0
			c-0.146-0.102-0.203-0.332-0.439-0.301l0,0c-0.133-0.069-0.036-0.247-0.152-0.323c-0.033-0.065-0.098-0.066-0.156-0.079
			c-0.027-0.128,0.031-0.343-0.233-0.228c-0.077,0.025-0.172-0.005-0.229,0.078l0,0c-0.066,0.027-0.081,0.167-0.155,0.125
			c-0.133-0.073,0.006-0.134,0.041-0.193c0.062-0.104,0.135-0.2,0.204-0.299c0,0,0,0-0.001,0c0.151-0.217-0.119-0.191-0.167-0.294
			h-0.001c-0.035-0.06-0.117-0.145-0.1-0.176c0.049-0.09,0.127,0.006,0.193,0.008c0.139-0.187,0.053-0.397,0.064-0.598
			c0.001-0.579,0.002-1.158,0.004-1.737c0-0.049,0-0.1-0.002-0.149c0.002-0.349,0.006-0.697,0.008-1.045
			c0.093-0.12,0.046-0.262,0.064-0.394c0.052-0.357-0.095-0.699-0.072-1.054c0.002-0.101,0.002-0.202,0.002-0.303
			c0.034-0.136,0.068-0.272,0.105-0.423c0.11,0.083,0.188,0.141,0.268,0.2c0.05,0.053,0.1,0.106,0.149,0.159l0,0
			c0.051,0.05,0.101,0.1,0.15,0.15c0.048,0.049,0.094,0.099,0.141,0.148l0,0c0.029,0.023,0.058,0.047,0.087,0.07l0,0
			c0.204,0.25,0.429,0.48,0.683,0.682c0.104,0.146,0.224,0.277,0.379,0.372c0.17,0.232,0.376,0.431,0.606,0.604
			c0.048,0.102,0.124,0.177,0.223,0.229c0.05,0.052,0.098,0.103,0.146,0.154l0,0c0.125,0.127,0.25,0.254,0.375,0.38
			c0.054,0.048,0.107,0.095,0.161,0.144c0.147,0.156,0.294,0.312,0.44,0.467c0.027,0.022,0.053,0.043,0.079,0.065l0,0
			c0.278,0.276,0.557,0.553,0.835,0.829l0,0c0.298,0.355,0.631,0.676,0.981,0.981c0.052,0.049,0.103,0.099,0.154,0.148
			c0.118,0.184,0.273,0.33,0.45,0.457c0.049,0.051,0.099,0.102,0.148,0.153c0.125,0.123,0.19,0.363,0.434,0.263
			c0.382-0.157,0.427-0.452,0.125-0.735c-0.054-0.051-0.113-0.096-0.17-0.145l0,0c-0.237-0.266-0.471-0.535-0.76-0.749v0
			c-0.094-0.115-0.164-0.276-0.285-0.334c-0.206-0.101-0.396-0.19-0.468-0.426l0,0c-0.113-0.139-0.205-0.299-0.377-0.377l0,0
			c-0.15-0.199-0.325-0.374-0.523-0.524c-0.083-0.122-0.175-0.234-0.311-0.301c-0.026-0.024-0.053-0.048-0.078-0.072
			c-0.101-0.126-0.2-0.251-0.302-0.377c-0.111-0.269-0.134-0.544-0.069-0.827c0.075-0.126,0.149-0.253,0.225-0.379
			c0.146-0.107,0.278-0.227,0.373-0.383c0.122-0.063,0.214-0.15,0.235-0.294l0,0c0.025-0.026,0.049-0.052,0.074-0.078l0,0
			c0.039-0.037,0.08-0.074,0.118-0.11c0.014-0.013,0.026-0.025,0.039-0.037c0,0,0,0,0.001,0
			C21.642,17.211,21.712,16.792,22.049,16.75z M4.847,37.917c0.017-0.091,0.048-0.187,0.154-0.143
			c0.128,0.053,0.08,0.16,0.014,0.249c-0.005,0.005-0.009,0.011-0.014,0.017c-0.065-0.007-0.128-0.02-0.162-0.086
			C4.841,37.942,4.844,37.929,4.847,37.917z M6.957,38.865c0.006-0.002,0.012-0.005,0.017-0.009
			c0.221-0.117,0.439-0.433,0.663,0.005c-0.024,0.001-0.049,0.002-0.073,0.002c-0.159,0.109-0.324,0.206-0.521,0.227
			c-0.002,0-0.004,0.001-0.006,0.001c0,0,0,0-0.001,0C6.843,39.073,6.909,38.966,6.957,38.865z M5.639,39.662
			c-0.087-0.064-0.262-0.085-0.11-0.265c0.01,0.003,0.019,0.005,0.028,0.009c0.052,0.016,0.104,0.033,0.155,0.049
			c0.013,0.004,0.025,0.008,0.038,0.012c0.028,0.018,0.059,0.036,0.087,0.053c0.019,0.011,0.037,0.022,0.055,0.033l0,0
			c0,0.043-0.002,0.086-0.004,0.128c0,0.003,0,0.006,0,0.009c-0.07,0.057-0.143,0.047-0.215,0.004
			C5.665,39.682,5.652,39.672,5.639,39.662z M42.449,40.807c-0.006-0.008-0.016-0.012-0.021-0.019
			c-0.008-0.008-0.017-0.015-0.024-0.022c-0.01-0.007-0.018-0.019-0.028-0.025c0.193-0.278,0.427-0.039,0.615-0.006
			c0.099,0.018,0.23,0.24,0.321,0.378c0.105,0.162-0.08,0.153-0.186,0.167c-0.003-0.006-0.008-0.009-0.011-0.015
			C42.965,41.011,42.702,40.916,42.449,40.807z M2.275,22.174c0.003-0.004,0.008-0.007,0.011-0.011
			c0.01-0.009,0.019-0.017,0.027-0.025c0.013-0.013,0.025-0.025,0.038-0.038c0.052,0.075,0.104,0.149,0.157,0.225
			c0.001,0,0.003,0.001,0.005,0.002c0.042,0.026,0.085,0.052,0.129,0.078c0.188,0.334-0.054,0.462-0.28,0.597
			c-0.003,0.002-0.006,0.003-0.009,0.005c-0.071,0.016-0.143,0.033-0.257,0.059C2.278,22.778,2.061,22.443,2.275,22.174z"/>
		<path fill="#08BFAD" d="M8.691,40.524c-0.005-0.004-0.008-0.009-0.013-0.014c-0.012-0.013-0.025-0.028-0.038-0.042
			c-0.007-0.008-0.015-0.016-0.021-0.024c-0.051-0.023-0.102-0.047-0.151-0.071c-0.061-0.092-0.124-0.059-0.175,0.005
			c-0.061,0.076-0.073,0.155,0.023,0.218C8.462,40.674,8.601,40.723,8.691,40.524z"/>
		<path fill="#08BFAD" d="M9.056,40.394c-0.039,0.104-0.116,0.21,0.022,0.289c0.076,0.043,0.061-0.09,0.113-0.141
			c0.009-0.008,0.018-0.015,0.031-0.018c-0.05-0.076-0.1-0.15-0.151-0.227C9.075,40.329,9.067,40.361,9.056,40.394z"/>
		<path fill="#08BFAD" d="M2.866,40.635c-0.001-0.096-0.059-0.16-0.156-0.173c-0.074-0.01-0.123,0.031-0.123,0.101
			c0.001,0.097,0.061,0.155,0.139,0.171C2.819,40.743,2.866,40.704,2.866,40.635z"/>
		<path fill="#08BFAD" d="M43.265,46.646c-0.021,0-0.042-0.001-0.062-0.006c0-0.025,0-0.051,0-0.076
			c-0.094-0.051-0.193-0.087-0.303-0.076c-0.137-0.132-0.05-0.302-0.076-0.453c-0.061-0.039-0.145-0.071-0.062-0.163
			c0.078-0.087,0.099-0.193,0.001-0.257c-0.104-0.069-0.183,0.019-0.235,0.112c-0.117,0.205-0.275,0.307-0.522,0.238
			c-0.077-0.021-0.188-0.024-0.219,0.086c-0.034,0.123-0.05,0.254,0.127,0.292c0.004-0.003,0.006-0.007,0.01-0.01v0l-0.009,0.01
			c0.01,0.093,0.061,0.144,0.157,0.146c0.044,0.001,0.088,0.002,0.133,0.002c0.003,0,0.009,0,0.013,0
			c0.008,0.096,0.059,0.145,0.155,0.147c0.151,0.024,0.32-0.062,0.453,0.075c0.061,0.041,0.167,0.079,0.17,0.125
			c0.005,0.085-0.094,0.096-0.17,0.102c-0.028,0.072-0.079,0.122-0.151,0.151c-0.022,0.076-0.12,0.152,0,0.228
			c0.104,0.171,0.372,0.095,0.454,0.3c0.179,0.033,0.318-0.05,0.452-0.151C43.64,47.133,43.462,46.887,43.265,46.646L43.265,46.646z
			"/>
		<path fill="#08BFAD" d="M16.133,12.119c0.146-0.039,0.003-0.141,0.033-0.209l0,0c0,0,0,0,0,0
			c-0.078,0.009-0.194-0.035-0.194,0.096C15.973,12.081,16.054,12.14,16.133,12.119z"/>
		<polygon fill="#08BFAD" points="16.166,11.91 16.166,11.91 16.166,11.91 		"/>
		<path fill="#08BFAD" d="M3.619,41.233c0.005-0.009,0.01-0.019,0.015-0.029c0.001-0.025,0.003-0.05,0.004-0.076
			c-0.026-0.026-0.053-0.051-0.077-0.077c-0.118,0-0.228,0.012-0.228,0.17c0.001,0.106-0.017,0.199-0.15,0.208
			c-0.354-0.174-0.282,0.229-0.296,0.297c-0.04,0.197,0.179,0.213,0.343,0.297c-0.02-0.15-0.032-0.257-0.047-0.364l0,0l0,0
			c0.11-0.002,0.185,0.05,0.228,0.148c0.024,0,0.05,0,0.075,0.001c0.2-0.025,0.138-0.182,0.149-0.302
			c-0.062-0.033-0.073-0.09-0.075-0.152c0.007-0.015,0.014-0.029,0.021-0.044C3.593,41.285,3.606,41.259,3.619,41.233z"/>
		<path fill="#08BFAD" d="M4.216,43.776c-0.07,0.005-0.12,0.042-0.111,0.12c0.008,0.081,0.068,0.1,0.137,0.086
			c0.064-0.013,0.111-0.053,0.119-0.131C4.344,43.773,4.278,43.772,4.216,43.776z"/>
		<path fill="#08BFAD" d="M6.442,10.748c0.03-0.007,0.065-0.032,0.076-0.058c0.02-0.044-0.02-0.057-0.071-0.059
			c-0.017,0.014-0.052,0.03-0.062,0.056C6.373,10.724,6.401,10.757,6.442,10.748z"/>
		<path fill="#08BFAD" d="M36.227,43.348c-0.077,0.02-0.119,0.085-0.109,0.167c0.009,0.071,0.06,0.099,0.129,0.092
			c0.077-0.02,0.14-0.061,0.132-0.146C36.37,43.378,36.309,43.327,36.227,43.348z"/>
		<path fill="#08BFAD" d="M43.513,31.708c-0.124,0.063-0.326-0.012-0.373,0.177c-0.022,0.094,0.062,0.183,0.158,0.152
			c0.145-0.045,0.326-0.035,0.41-0.198C43.68,31.722,43.593,31.667,43.513,31.708z"/>
		<path fill="#08BFAD" d="M43.931,27.494c-0.006,0.072,0.055,0.104,0.12,0.11c0.075,0.006,0.112-0.035,0.121-0.106
			c0.001-0.068-0.03-0.134-0.094-0.139C43.998,27.353,43.936,27.413,43.931,27.494z"/>
		<path fill="#08BFAD" d="M44.03,34.41c0.06-0.031,0.075-0.085,0.077-0.146c-0.087-0.04-0.201-0.145-0.258-0.025
			C43.794,34.356,43.927,34.394,44.03,34.41z"/>
		<path fill="#08BFAD" d="M43.204,33.083c-0.066-0.005-0.07,0.059-0.072,0.107c-0.004,0.065,0.008,0.13,0.091,0.129
			c0.056-0.001,0.082-0.046,0.085-0.102C43.291,33.159,43.276,33.089,43.204,33.083z"/>
		<path fill="#08BFAD" d="M43.53,32.266c-0.055,0.005-0.083,0.048-0.082,0.101c0.003,0.064,0.056,0.072,0.104,0.071
			c0.059-0.001,0.084-0.037,0.082-0.095C43.62,32.29,43.583,32.26,43.53,32.266z"/>
		<path fill="#08BFAD" d="M43.736,32.817c0.051,0.003,0.103-0.005,0.11-0.073c-0.018-0.06-0.063-0.071-0.115-0.06
			s-0.099,0.041-0.091,0.098C43.644,32.798,43.703,32.815,43.736,32.817z"/>
		<path fill="#08BFAD" d="M44.253,37.282l0.002-0.234C44.216,37.125,44.216,37.203,44.253,37.282z"/>
		<path fill="#08BFAD" d="M43.821,13.86c0.012,0.079,0.058,0.131,0.143,0.135c0.085-0.019,0.129-0.071,0.13-0.153
			c0.001-0.096-0.066-0.12-0.146-0.119C43.86,13.727,43.808,13.77,43.821,13.86z"/>
		<path fill="#08BFAD" d="M44.075,37.94l0.18-0.061C44.188,37.888,44.082,37.863,44.075,37.94z"/>
		<path fill="#08BFAD" d="M21.657,19.447c0.079-0.013,0.15-0.056,0.162-0.155c0.012-0.096-0.03-0.176-0.133-0.182
			c-0.107-0.006-0.142,0.083-0.149,0.172C21.529,19.36,21.548,19.43,21.657,19.447z"/>
		<path fill="#08BFAD" d="M22.588,19.306c0.025-0.097,0.158-0.216-0.015-0.28c-0.124-0.046-0.243,0.066-0.245,0.171
			C22.324,19.377,22.495,19.276,22.588,19.306z"/>
		<path fill="#08BFAD" d="M22.108,19.818c0.06-0.003,0.08-0.047,0.089-0.1c-0.009-0.054-0.038-0.093-0.095-0.094
			c-0.052-0.001-0.098,0.02-0.103,0.082C21.995,19.781,22.034,19.821,22.108,19.818z"/>
		<rect x="22.588" y="19.306" fill="#08BFAD" width="0" height="0"/>
		<path fill="#08BFAD" d="M22.598,19.516c0.025,0.011,0.084-0.003,0.095-0.022c0.061-0.111-0.035-0.143-0.104-0.187
			C22.575,19.377,22.466,19.456,22.598,19.516z"/>
	</g>
</g>
</svg>
